<svg xmlns="http://www.w3.org/2000/svg" xmlns:xlink="http://www.w3.org/1999/xlink" width="534.803" height="100.074" viewBox="0 0 14150 2648" shape-rendering="geometricPrecision" image-rendering="optimizeQuality" fill-rule="evenodd" xmlns:v="https://vecta.io/nano"><g fill="#fff"><use xlink:href="#B"/><use xlink:href="#C"/><use xlink:href="#B"/><use xlink:href="#C"/></g><defs ><path id="B" d="M1774 1547l1400 1101h374V0h-374L1774 1101 374 0H0v2648h374l1400-1101zM356 432v1783l1134-891L356 433zm2836 0v1783l-1134-891 1134-891z"/><path id="C" d="M4298 2131h366l-185-423-180 423zm-387 496l508-1173h122l515 1173h-173l-151-345h-500l-149 345h-172zm1578-92v-221c53 61 104 105 152 132s100 40 155 40c58 0 104-14 137-41s50-64 50-110c0-38-11-72-34-100-23-29-77-70-162-125-133-85-216-152-250-199s-51-103-51-168c0-91 32-166 97-225 65-58 148-88 250-88 45 0 90 7 134 20s88 34 133 61v191c-52-42-99-72-143-90-43-19-87-28-131-28-53 0-96 13-129 39s-50 60-50 100c0 58 67 133 207 216l25 15c113 68 186 131 221 185 35 53 52 120 52 198 0 89-32 163-97 222-65 58-148 88-249 88-63 0-120-9-171-27s-100-46-147-85zm1019-563h182c82 0 141-15 177-43 37-29 55-76 55-140s-18-111-55-140-96-44-177-44h-182v368zm-167 654V1453h366c122 0 218 30 287 89s103 141 103 246-34 186-103 245-164 88-287 88h-200v505h-167zm1061-496h366l-185-423-180 423zm-387 496l508-1173h122l515 1173h-173l-151-345h-500l-149 345h-172zm2203-278v189c-69 36-139 63-210 82s-142 28-212 28c-67 0-132-9-192-26-61-18-119-43-173-78-87-57-155-130-203-218-48-89-73-185-73-289 0-79 16-155 48-229s77-139 136-194c63-59 133-104 210-133 78-29 164-44 258-44 66 0 132 7 196 23 65 15 133 39 204 72v182c-74-40-144-70-210-90-65-19-129-29-190-29-137 0-250 43-340 128s-134 192-134 321c0 127 44 233 132 318s199 128 332 128c68 0 138-12 207-34 70-23 141-58 213-105zm192 278V1453h706v149h-539v356h524v151h-524v366h557v151h-723zm2315-575v496c-77 33-150 59-220 75-69 16-135 25-198 25-70 0-137-9-199-26s-119-43-171-77c-87-57-155-130-203-218-48-89-73-186-73-291 0-79 16-155 48-229s78-139 136-194c62-59 132-105 210-133 78-29 165-44 261-44 66 0 131 8 197 24s133 39 202 71v182c-74-40-144-70-210-90-65-19-129-29-190-29-137 0-250 43-340 128-89 85-134 192-134 321 0 127 44 233 133 318 88 85 199 128 333 128 40 0 81-4 121-13s82-22 125-40v-227h-220v-156h393zm222 575V1453h168v1173h-168zm424 0V1453h668v149h-502v347h486v151h-486v526h-167zm1182 0V1606h-431v-153h1029v153h-431v1020h-167zM3912 1172V-1h259l376 472L4925-1h259v1173h-289V446l-349 429-345-429v726h-290zm1503 0V-1h785v216h-491v239h469v218h-469v280h505v220h-799zm1428-692c54 0 95-11 121-34 27-23 40-57 40-103 0-44-14-78-42-101s-68-35-120-35h-141v273h141zm-435 692V-1h433c159 0 277 28 353 83s114 141 114 257c0 65-17 120-50 166-34 46-85 85-154 117 29 11 55 28 78 53s43 56 61 95l187 402h-331l-149-338c-24-54-52-91-82-111-31-20-74-30-131-30-4 0-10 0-17 1s-13 1-17 1v477h-294zm1556-692c54 0 95-11 121-34 27-23 40-57 40-103 0-44-14-78-41-101-28-23-68-35-120-35h-141v273h141zm-435 692V-1h433c159 0 277 28 353 83s114 141 114 257c0 65-17 120-50 166s-85 85-154 117c29 11 55 28 78 53s43 56 61 95l187 402h-331l-149-338c-24-54-52-91-82-111-31-20-74-30-131-30-4 0-10 0-18 1-7 1-13 1-17 1v477h-294zm1123 0V-1h302v1173h-302zm415 0l495-608L9097-1h369l280 344 282-344h368l-469 562 512 611h-377l-315-383-313 383h-366z"/></defs></svg>