<svg xmlns="http://www.w3.org/2000/svg" width="31" height="31" viewBox="0 0 31 31">
    <g fill="none" fill-rule="evenodd">
        <g fill="#004D40" fill-rule="nonzero">
            <g>
                <g>
                    <g>
                        <path d="M28.389 0H2.58C1.16 0 0 1.162 0 2.58v25.81c0 1.418 1.162 2.58 2.58 2.58H28.39c1.419 0 2.58-1.162 2.58-2.58V2.58c0-1.418-1.161-2.58-2.58-2.58zm0 28.39H18.066V18.064h6.452v-2.58h-6.452v-2.581c0-2.139 1.734-3.871 3.871-3.871h2.58V6.452h-2.58c-3.563 0-6.452 2.888-6.452 6.452v2.58h-2.581v2.581h2.58V28.39H2.582V2.581h25.808v25.808z" transform="translate(-316 -5510) translate(0 4899) translate(120 561) translate(196 50)"/>
                    </g>
                </g>
            </g>
        </g>
    </g>
</svg>
