<svg xmlns="http://www.w3.org/2000/svg" width="20" height="20" viewBox="0 0 20 20">
    <g fill="none" fill-rule="evenodd">
        <g fill="#FFF" fill-rule="nonzero">
            <g>
                <g>
                    <path d="M18.315 0H1.665C.75 0 0 .75 0 1.665v16.65c0 .916.75 1.665 1.665 1.665h16.65c.916 0 1.665-.75 1.665-1.664V1.666C19.98.75 19.231 0 18.315 0zm0 18.316h-6.66v-6.66h4.163V9.99h-4.163V8.325c0-1.38 1.119-2.497 2.498-2.497h1.665V4.162h-1.665c-2.299 0-4.163 1.864-4.163 4.163V9.99H8.325v1.665H9.99v6.66H1.665V1.666h16.65v16.65z" transform="translate(-1300 -32) translate(120 24) translate(1180 8)"/>
                </g>
            </g>
        </g>
    </g>
</svg>
