<svg xmlns="http://www.w3.org/2000/svg" width="31" height="31" viewBox="0 0 31 31">
    <g fill="none" fill-rule="evenodd">
        <g fill="#004D40" fill-rule="nonzero">
            <g>
                <g>
                    <g transform="translate(-120 -5510) translate(0 4899) translate(120 561) translate(0 50)">
                        <path d="M23.228 0H7.743C3.485 0 0 3.484 0 7.742v15.486c0 4.257 3.485 7.743 7.743 7.743h15.485c4.258 0 7.742-3.486 7.742-7.743V7.742C30.97 3.484 27.486 0 23.228 0zm5.161 23.228c0 2.845-2.314 5.162-5.161 5.162H7.743c-2.846 0-5.162-2.317-5.162-5.162V7.742c0-2.846 2.316-5.161 5.162-5.161h15.485c2.847 0 5.161 2.315 5.161 5.161v15.486z"/>
                        <circle cx="23.874" cy="7.097" r="1.936"/>
                        <path d="M15.485 7.742c-4.277 0-7.742 3.466-7.742 7.743 0 4.275 3.465 7.743 7.742 7.743 4.276 0 7.743-3.468 7.743-7.743 0-4.277-3.467-7.743-7.743-7.743zm0 12.905c-2.85 0-5.161-2.311-5.161-5.162s2.31-5.162 5.161-5.162c2.85 0 5.162 2.31 5.162 5.162 0 2.851-2.311 5.162-5.162 5.162z"/>
                    </g>
                </g>
            </g>
        </g>
    </g>
</svg>
