<svg xmlns="http://www.w3.org/2000/svg" width="45" height="45" viewBox="0 0 45 45">
    <defs>
        <linearGradient id="db64by5xka" x1="50%" x2="50%" y1="100%" y2="0%">
            <stop offset="0%" stop-color="#FD3A84"/>
            <stop offset="100%" stop-color="#FFA68D"/>
        </linearGradient>
        <linearGradient id="5mgytcttjb" x1="50%" x2="50%" y1="100%" y2="0%">
            <stop offset="0%" stop-color="#FFC2CC"/>
            <stop offset="100%" stop-color="#FFF2F4"/>
        </linearGradient>
    </defs>
    <g fill="none" fill-rule="evenodd">
        <g fill-rule="nonzero">
            <g>
                <g transform="translate(-251 -4990) translate(0 4899) translate(251 91)">
                    <circle cx="22.5" cy="22.5" r="22.5" fill="url(#db64by5xka)"/>
                    <path fill="url(#5mgytcttjb)" d="M29.485 11.038c-2.88 0-5.09 1.624-6.56 4.04-1.472-2.417-3.681-4.04-6.561-4.04-2.232 0-4.268.944-5.734 2.66-1.38 1.615-2.14 3.772-2.14 6.073 0 2.503.936 4.816 2.946 7.281 1.761 2.161 4.29 4.384 7.219 6.959 1.082.952 2.202 1.936 3.392 3.01.25.225.563.337.878.337.314 0 .628-.112.877-.337 1.19-1.074 2.31-2.058 3.392-3.01 2.929-2.575 5.458-4.798 7.22-6.959 2.009-2.465 2.944-4.778 2.944-7.28 0-4.706-3.214-8.734-7.873-8.734z"/>
                </g>
            </g>
        </g>
    </g>
</svg>
