<svg xmlns="http://www.w3.org/2000/svg" width="20" height="20" viewBox="0 0 20 20">
    <g fill="none" fill-rule="evenodd">
        <g fill="#FFF" fill-rule="nonzero">
            <g>
                <g>
                    <path d="M19.92 5.867c-.047-1.06-.218-1.789-.464-2.42-.253-.671-.643-1.272-1.154-1.77-.499-.507-1.103-.901-1.766-1.15-.635-.246-1.36-.418-2.421-.465C13.047.012 12.708 0 9.998 0S6.949.012 5.885.058c-1.06.047-1.79.219-2.421.464-.67.254-1.271.644-1.77 1.154-.507.5-.9 1.104-1.15 1.767-.246.635-.417 1.36-.464 2.42C.03 6.932.018 7.271.018 9.981c0 2.71.011 3.048.058 4.113.047 1.06.218 1.789.464 2.42.253.671.647 1.272 1.154 1.77.499.507 1.103.901 1.766 1.15.636.246 1.36.418 2.421.465 1.064.046 1.404.058 4.113.058 2.71 0 3.049-.012 4.113-.058 1.06-.047 1.79-.219 2.421-.464 1.341-.519 2.402-1.58 2.92-2.92.246-.636.418-1.361.464-2.421.047-1.065.059-1.404.059-4.113 0-2.71-.004-3.05-.051-4.114zm-1.797 8.149c-.043.974-.207 1.5-.343 1.851-.336.87-1.026 1.56-1.895 1.895-.35.137-.881.3-1.852.343-1.053.047-1.368.059-4.031.059-2.663 0-2.982-.012-4.031-.059-.975-.043-1.501-.206-1.852-.343-.433-.16-.827-.413-1.146-.744-.332-.324-.585-.714-.745-1.147-.136-.35-.3-.88-.343-1.851-.047-1.053-.058-1.369-.058-4.032 0-2.663.011-2.982.058-4.03.043-.976.207-1.502.343-1.853.16-.433.413-.826.749-1.146.323-.331.713-.585 1.146-.745.35-.136.881-.3 1.852-.343 1.052-.046 1.368-.058 4.03-.058 2.668 0 2.983.012 4.032.058.975.043 1.501.207 1.852.343.433.16.826.414 1.146.745.331.324.585.713.745 1.146.136.351.3.881.343 1.852.047 1.053.058 1.368.058 4.031 0 2.663-.011 2.975-.058 4.028z" transform="translate(-1230 -32) translate(120 24) translate(1110 8)"/>
                    <path d="M9.998 4.854c-2.83 0-5.127 2.296-5.127 5.127 0 2.83 2.297 5.126 5.127 5.126 2.83 0 5.127-2.296 5.127-5.126 0-2.831-2.297-5.127-5.127-5.127zm0 8.452c-1.836 0-3.326-1.49-3.326-3.325 0-1.837 1.49-3.326 3.326-3.326s3.326 1.49 3.326 3.326-1.49 3.325-3.326 3.325zM16.524 4.651c0 .661-.535 1.197-1.197 1.197-.66 0-1.196-.536-1.196-1.197s.535-1.197 1.196-1.197c.662 0 1.197.536 1.197 1.197z" transform="translate(-1230 -32) translate(120 24) translate(1110 8)"/>
                </g>
            </g>
        </g>
    </g>
</svg>
