<svg xmlns="http://www.w3.org/2000/svg" width="15" height="15" viewBox="0 0 15 15">
    <g fill="none" fill-rule="evenodd">
        <g fill="#FFF" fill-rule="nonzero">
            <g>
                <g>
                    <path d="M13.796 9.846c-.918 0-1.82-.144-2.674-.426-.419-.143-.934-.012-1.19.25l-1.686 1.274C6.29 9.9 5.086 8.695 4.056 6.754L5.29 5.11c.321-.32.437-.789.299-1.228-.284-.86-.428-1.76-.428-2.68C5.162.54 4.622 0 3.958 0H1.204C.54 0 0 .54 0 1.204 0 8.81 6.189 15 13.796 15 14.46 15 15 14.46 15 13.796V11.05c0-.663-.54-1.203-1.204-1.203z" transform="translate(-1040 -34) translate(120 24) translate(920 10)"/>
                </g>
            </g>
        </g>
    </g>
</svg>
